<?xml version="1.0" standalone="no"?>
<!DOCTYPE svg PUBLIC "-//W3C//DTD SVG 20010904//EN"
 "http://www.w3.org/TR/2001/REC-SVG-20010904/DTD/svg10.dtd">
<svg version="1.0" xmlns="http://www.w3.org/2000/svg"
 width="700.000000pt" height="700.000000pt" viewBox="0 0 700.000000 700.000000"
 preserveAspectRatio="xMidYMid meet">
<metadata>
Created by potrace 1.14, written by Peter Selinger 2001-2017
</metadata>
<g transform="translate(0.000000,700.000000) scale(0.100000,-0.100000)"
fill="#000000" stroke="none">
<path d="M5145 6983 c-64 -23 -105 -53 -149 -106 -24 -30 -130 -266 -366 -817
-183 -426 -339 -793 -347 -815 -21 -59 -20 -152 3 -216 14 -40 35 -71 84 -119
49 -49 731 -614 829 -687 14 -10 10 -24 -37 -120 -184 -373 -456 -774 -747
-1103 -57 -64 -360 -367 -421 -420 -28 -25 -64 -56 -80 -70 -165 -144 -407
-318 -679 -487 -51 -31 -260 -145 -345 -188 l-94 -47 -36 40 c-19 22 -42 48
-50 58 -59 74 -329 404 -346 424 -12 14 -75 90 -139 170 -140 173 -163 195
-235 228 -43 19 -72 24 -130 24 -73 0 -81 -2 -350 -117 -151 -64 -300 -128
-330 -142 -30 -14 -76 -33 -101 -43 -26 -10 -66 -28 -90 -39 -24 -11 -215 -92
-424 -181 -209 -89 -397 -173 -417 -186 -55 -36 -114 -116 -133 -181 -19 -64
-16 -121 10 -238 9 -38 18 -81 21 -94 3 -13 12 -51 20 -85 8 -34 17 -72 20
-86 3 -14 7 -33 10 -42 3 -10 7 -28 9 -40 3 -13 36 -160 75 -328 39 -168 87
-372 105 -455 65 -283 76 -314 142 -380 21 -21 63 -50 93 -64 53 -25 61 -26
240 -26 161 1 359 9 455 19 17 2 66 7 110 11 44 4 88 9 99 11 10 2 44 6 75 10
31 3 65 8 76 10 11 2 40 7 65 10 25 3 52 7 60 9 8 3 33 7 55 11 226 34 612
131 905 227 82 27 337 121 385 142 17 8 64 28 105 45 150 63 395 180 452 216
21 13 38 22 38 19 0 -3 17 5 38 18 20 13 66 39 102 58 184 99 508 314 720 477
267 205 396 319 640 562 194 194 238 242 411 450 411 495 757 1077 999 1685
29 72 61 155 71 185 33 94 100 294 104 310 2 8 13 47 25 85 20 67 88 329 96
369 2 11 12 63 23 115 44 213 70 389 105 711 12 104 20 307 21 475 0 174 -1
182 -26 235 -33 69 -84 122 -146 153 -38 19 -208 65 -346 92 -10 3 -26 6 -35
9 -9 3 -28 7 -42 10 -14 3 -115 26 -225 52 -110 25 -218 50 -240 55 -49 10
-61 13 -150 34 -38 9 -81 19 -95 21 -14 3 -31 7 -38 9 -11 4 -230 55 -303 71
-72 15 -156 14 -204 -3z"/>
</g>
</svg>
